<svg width="368" height="360" version="1.1" xmlns="http://www.w3.org/2000/svg" desc="Created with imagetracer.js version 1.2.6" ><path fill="rgb(207,209,212)" stroke="rgb(207,209,212)" stroke-width="1" opacity="0.36470588235294116" d="M 44.5 44 L 45 320.5 L 44 320.5 L 44.5 44 Z " /><path fill="rgb(207,209,212)" stroke="rgb(207,209,212)" stroke-width="1" opacity="0.36470588235294116" d="M 78.5 74 L 79 76.5 L 78 76.5 L 78.5 74 Z " /><path fill="rgb(207,209,212)" stroke="rgb(207,209,212)" stroke-width="1" opacity="0.36470588235294116" d="M 78.5 218 L 79 223.5 L 78 223.5 L 78.5 218 Z " /><path fill="rgb(207,209,212)" stroke="rgb(207,209,212)" stroke-width="1" opacity="0.36470588235294116" d="M 78.5 278 L 79 286 L 87.5 286 L 88 283.5 L 89 283.5 L 89 287 L 78 287 L 78.5 278 Z " /><path fill="rgb(207,209,212)" stroke="rgb(207,209,212)" stroke-width="1" opacity="0.36470588235294116" d="M 117 285 L 119.5 286 L 135.5 286 Q 136.7 283.8 138 286.5 L 117 287 L 117 285 Z " /><path fill="rgb(207,209,212)" stroke="rgb(207,209,212)" stroke-width="1" opacity="0.36470588235294116" d="M 169.5 285 L 170.5 286 L 183.5 286 L 186 285 L 185.5 287 L 167.5 287 L 167.5 286 L 169.5 285 Z " /><path fill="rgb(207,209,212)" stroke="rgb(207,209,212)" stroke-width="1" opacity="0.36470588235294116" d="M 214.5 285 L 217.5 286 L 219.5 286 L 281 286 L 281 324 L 215.5 324 L 215 325.5 L 214 325.5 L 214.5 323 L 280 323 L 280 287 L 215.5 287 L 214.5 285 Z " /><path fill="rgb(207,209,212)" stroke="rgb(207,209,212)" stroke-width="1" opacity="0.36470588235294116" d="M 44.5 322 L 45.5 323 L 89 323 L 88.5 326 L 88 324 L 44.5 324 L 44.5 322 Z " /><path fill="rgb(207,209,212)" stroke="rgb(207,209,212)" stroke-width="1" opacity="0.36470588235294116" d="M 152.5 328 L 163 328.5 L 158.5 330 L 155.5 329 Q 151.5 329.8 152.5 328 Z " /><path fill="rgb(172,97,92)" stroke="rgb(172,97,92)" stroke-width="1" opacity="0.8745098039215686" d="M 78.5 43 L 330 43.5 L 78.5 44 L 78.5 43 Z " /><path fill="rgb(172,97,92)" stroke="rgb(172,97,92)" stroke-width="1" opacity="0.8745098039215686" d="M 79.5 73 L 302.5 73 L 304 74.5 L 304 115.5 L 302.5 117 L 158 117 L 158 217.5 L 157 217.5 L 157 117.5 L 158.5 116 L 302.5 116 L 303 115.5 L 303 74 L 79.5 74 L 79.5 73 Z " /><path fill="rgb(172,97,92)" stroke="rgb(172,97,92)" stroke-width="1" opacity="0.8745098039215686" d="M 196.5 148 L 197 187.5 L 196 187.5 L 196.5 148 Z " /><path fill="rgb(151,101,100)" stroke="rgb(151,101,100)" stroke-width="1" opacity="0.30196078431372547" d="M 86.5 42 L 139 42.5 L 86.5 43 L 86.5 42 Z " /><path fill="rgb(151,101,100)" stroke="rgb(151,101,100)" stroke-width="1" opacity="0.30196078431372547" d="M 174.5 42 L 190 42.5 L 174.5 43 L 174.5 42 Z " /><path fill="rgb(151,101,100)" stroke="rgb(151,101,100)" stroke-width="1" opacity="0.30196078431372547" d="M 202.5 42 L 326 42.5 L 202.5 43 L 202.5 42 Z " /><path fill="rgb(151,101,100)" stroke="rgb(151,101,100)" stroke-width="1" opacity="0.30196078431372547" d="M 327.5 42 L 331 43.5 L 331 219 L 167.5 219 L 166.5 221 L 139 221 L 139 283.5 L 137.5 286 L 137 283.5 L 138 282.5 L 138 220 L 155.5 220 L 157.5 218 L 330 218 L 330 43.5 L 327.5 43 L 327.5 42 Z " /><path fill="rgb(151,101,100)" stroke="rgb(151,101,100)" stroke-width="1" opacity="0.30196078431372547" d="M 83.5 74 L 89 74.5 L 83.5 75 L 83.5 74 Z " /><path fill="rgb(151,101,100)" stroke="rgb(151,101,100)" stroke-width="1" opacity="0.30196078431372547" d="M 270.5 74 L 298 74.5 L 270.5 75 L 270.5 74 Z " /><path fill="rgb(151,101,100)" stroke="rgb(151,101,100)" stroke-width="1" opacity="0.30196078431372547" d="M 302.5 74 L 303 116 L 301 115.5 L 302 114.5 L 302.5 74 Z " /><path fill="rgb(151,101,100)" stroke="rgb(151,101,100)" stroke-width="1" opacity="0.30196078431372547" d="M 156.5 121 L 157 211.5 L 156 211.5 L 156.5 121 Z " /><path fill="rgb(151,101,100)" stroke="rgb(151,101,100)" stroke-width="1" opacity="0.30196078431372547" d="M 197 148 L 294.5 148 L 296 149.5 L 295.5 178 L 295 150.5 L 293.5 149 L 198 149 L 198 187 L 293.5 187 L 295 185.5 L 295.5 179 L 296 186.5 L 294.5 188 L 197 188 L 197 148 Z " /><path fill="rgb(151,101,100)" stroke="rgb(151,101,100)" stroke-width="1" opacity="0.30196078431372547" d="M 90.5 221 L 116.5 221 L 118 222.5 L 117.5 285 L 117 222 L 90.5 222 L 90.5 221 Z " /><path fill="rgb(151,101,100)" stroke="rgb(151,101,100)" stroke-width="1" opacity="0.30196078431372547" d="M 186 221 L 213.5 221 L 215 222.5 L 214.5 283 L 214 222 L 187.5 222 L 186.5 223 L 186 221 Z " /><path fill="rgb(151,101,100)" stroke="rgb(151,101,100)" stroke-width="1" opacity="0.30196078431372547" d="M 88.5 222 L 89 279.5 L 88 279.5 L 88.5 222 Z " /><path fill="rgb(151,101,100)" stroke="rgb(151,101,100)" stroke-width="1" opacity="0.30196078431372547" d="M 167.5 270 L 168 284.5 L 169 285.5 L 167 286 L 167.5 270 Z " /><path fill="rgb(151,101,100)" stroke="rgb(151,101,100)" stroke-width="1" opacity="0.30196078431372547" d="M 88.5 326 L 89.5 328 L 88.5 326 Z " /><path fill="rgb(151,101,100)" stroke="rgb(151,101,100)" stroke-width="1" opacity="0.30196078431372547" d="M 150.5 326 L 152 328.5 L 150 327.5 L 150.5 326 Z " /><path fill="rgb(151,101,100)" stroke="rgb(151,101,100)" stroke-width="1" opacity="0.30196078431372547" d="M 98.5 328 L 102 329.5 L 100.5 330 L 98.5 328 Z " /><path fill="rgb(151,101,100)" stroke="rgb(151,101,100)" stroke-width="1" opacity="0.30196078431372547" d="M 165.5 328 L 203 328.5 L 165.5 329 L 165.5 328 Z " /><path fill="rgb(151,101,100)" stroke="rgb(151,101,100)" stroke-width="1" opacity="0.30196078431372547" d="M 206.5 328 L 210 328.5 L 206.5 329 L 206.5 328 Z " /><path fill="rgb(183,98,96)" stroke="rgb(183,98,96)" stroke-width="1" opacity="0.996078431372549" d="M 84.5 45 L 86.5 48 L 91 46.5 L 88.5 49 L 84.5 47 L 83.5 48 Q 80.9 48.7 82 46 L 84.5 45 Z " /><path fill="rgb(183,98,96)" stroke="rgb(183,98,96)" stroke-width="1" opacity="0.996078431372549" d="M 79 46 L 81 46.5 L 81 62.5 L 80 64.5 L 81 68 L 79 67.5 L 79 65.5 L 79 49.5 L 80 48.5 L 79 46 Z " /><path fill="rgb(183,98,96)" stroke="rgb(183,98,96)" stroke-width="1" opacity="0.996078431372549" d="M 328.5 47 L 329 211.5 L 327 210.5 L 328 207.5 L 328 49.5 Q 325.8 48.2 328.5 47 Z " /><path fill="rgb(183,98,96)" stroke="rgb(183,98,96)" stroke-width="1" opacity="0.996078431372549" d="M 292.5 63 L 295 64.5 L 292.5 68 L 292.5 63 Z " /><path fill="rgb(183,98,96)" stroke="rgb(183,98,96)" stroke-width="1" opacity="0.996078431372549" d="M 300.5 63 L 303 63 Q 301.5 66.7 304.5 66 L 304.5 67 L 300.5 69 L 300.5 68 L 302 68 L 302 64 L 300.5 63 Z " /><path fill="rgb(183,98,96)" stroke="rgb(183,98,96)" stroke-width="1" opacity="0.996078431372549" d="M 86.5 64 L 93 66 Q 94.1 68.7 91.5 68 L 87.5 68 Q 81.2 69.9 83 65 L 86.5 64 Z " /><path fill="rgb(183,98,96)" stroke="rgb(183,98,96)" stroke-width="1" opacity="0.996078431372549" d="M 288.5 64 L 289 67.5 L 288 67.5 L 288.5 64 Z " /><path fill="rgb(183,98,96)" stroke="rgb(183,98,96)" stroke-width="1" opacity="0.996078431372549" d="M 140 65 Q 143.8 64 145 66.5 L 143.5 69 L 135.5 70 L 135.5 69 L 137 68.5 L 134.5 68 L 124.5 70 L 121.5 68 L 113.5 68 L 112.5 67 L 111 67.5 L 111.5 66 L 121.5 66 L 124.5 67 L 138.5 66 L 140 66.5 L 140 65 Z " /><path fill="rgb(183,98,96)" stroke="rgb(183,98,96)" stroke-width="1" opacity="0.996078431372549" d="M 96.5 66 L 95.5 68 L 94 67.5 L 96.5 66 Z " /><path fill="rgb(183,98,96)" stroke="rgb(183,98,96)" stroke-width="1" opacity="0.996078431372549" d="M 296.5 70 Q 299.5 71.5 296.5 73 L 293 71.5 L 294.5 72 Q 297 72.7 296.5 70 Z " /><path fill="rgb(183,98,96)" stroke="rgb(183,98,96)" stroke-width="1" opacity="0.996078431372549" d="M 161.5 117 L 163.5 117 L 165 117.5 L 163 118 L 163.5 120 L 168 118.5 L 167.5 120 L 287.5 120 L 288 117 L 289.5 117 L 291 120.5 Q 289.3 118.9 287.5 122 L 174.5 122 L 173.5 121 L 165.5 121 L 161.5 122 L 161.5 121 L 163 120.5 L 161.5 118 L 160.5 120 L 160 118.5 L 161.5 117 Z " /><path fill="rgb(183,98,96)" stroke="rgb(183,98,96)" stroke-width="1" opacity="0.996078431372549" d="M 299.5 117 L 303 118.5 L 300.5 122 L 296 121.5 L 295 119.5 L 299.5 117 Z " /><path fill="rgb(183,98,96)" stroke="rgb(183,98,96)" stroke-width="1" opacity="0.996078431372549" d="M 298.5 123 L 303 125.5 L 300.5 126 Q 296.1 127.1 298.5 123 Z " /><path fill="rgb(183,98,96)" stroke="rgb(183,98,96)" stroke-width="1" opacity="0.996078431372549" d="M 160 124 L 175.5 124 L 176 126 L 160.5 126 L 160 124 Z " /><path fill="rgb(183,98,96)" stroke="rgb(183,98,96)" stroke-width="1" opacity="0.996078431372549" d="M 290.5 124 Q 293.5 125.5 290.5 127 L 290.5 124 Z " /><path fill="rgb(183,98,96)" stroke="rgb(183,98,96)" stroke-width="1" opacity="0.996078431372549" d="M 176.5 127 L 287 127.5 L 176.5 128 L 176.5 127 Z " /><path fill="rgb(183,98,96)" stroke="rgb(183,98,96)" stroke-width="1" opacity="0.996078431372549" d="M 159.5 129 L 160 151.5 L 159 151.5 L 159.5 129 Z " /><path fill="rgb(183,98,96)" stroke="rgb(183,98,96)" stroke-width="1" opacity="0.996078431372549" d="M 200 143 Q 203 141.8 202 145.5 L 202.5 147 Q 197.9 148.2 200 143 Z " /><path fill="rgb(183,98,96)" stroke="rgb(183,98,96)" stroke-width="1" opacity="0.996078431372549" d="M 206.5 143 L 209 143.5 L 206.5 144 L 206.5 143 Z " /><path fill="rgb(183,98,96)" stroke="rgb(183,98,96)" stroke-width="1" opacity="0.996078431372549" d="M 288.5 143 L 292 144.5 L 290 145.5 L 290.5 144 Q 287.5 144.5 288.5 143 Z " /><path fill="rgb(183,98,96)" stroke="rgb(183,98,96)" stroke-width="1" opacity="0.996078431372549" d="M 294.5 143 L 293.5 145 L 294.5 143 Z " /><path fill="rgb(183,98,96)" stroke="rgb(183,98,96)" stroke-width="1" opacity="0.996078431372549" d="M 193.5 144 L 194 147 L 192 147.5 L 194 148.5 L 191.5 150 L 191 145 L 193.5 144 Z " /><path fill="rgb(183,98,96)" stroke="rgb(183,98,96)" stroke-width="1" opacity="0.996078431372549" d="M 209.5 145 L 238.5 145 L 241 146.5 L 206.5 147 L 206.5 146 L 209.5 145 Z " /><path fill="rgb(183,98,96)" stroke="rgb(183,98,96)" stroke-width="1" opacity="0.996078431372549" d="M 280.5 145 L 289 145.5 L 280.5 146 L 280.5 145 Z " /><path fill="rgb(183,98,96)" stroke="rgb(183,98,96)" stroke-width="1" opacity="0.996078431372549" d="M 295.5 145 L 296.5 148 Q 299.1 147.3 298 150 Q 295.3 151.1 296 148.5 Q 292.3 146.8 295.5 145 Z " /><path fill="rgb(183,98,96)" stroke="rgb(183,98,96)" stroke-width="1" opacity="0.996078431372549" d="M 301.5 147 L 304 148 L 302.5 153 L 301.5 147 Z " /><path fill="rgb(183,98,96)" stroke="rgb(183,98,96)" stroke-width="1" opacity="0.996078431372549" d="M 192.5 152 L 194 152.5 L 192 153 Q 190.5 156.8 193.5 156 L 193.5 157 L 191 155.5 L 192.5 152 Z " /><path fill="rgb(183,98,96)" stroke="rgb(183,98,96)" stroke-width="1" opacity="0.996078431372549" d="M 297.5 156 L 299 158.5 L 297 157.5 L 297.5 156 Z " /><path fill="rgb(183,98,96)" stroke="rgb(183,98,96)" stroke-width="1" opacity="0.996078431372549" d="M 301.5 157 L 302 176 L 300 175.5 L 300 160.5 L 301.5 157 Z " /><path fill="rgb(183,98,96)" stroke="rgb(183,98,96)" stroke-width="1" opacity="0.996078431372549" d="M 192.5 160 L 195 160.5 Q 196.1 170.2 194 175 L 192 174.5 L 192.5 160 Z " /><path fill="rgb(183,98,96)" stroke="rgb(183,98,96)" stroke-width="1" opacity="0.996078431372549" d="M 159.5 168 L 160 174.5 L 159 174.5 L 159.5 168 Z " /><path fill="rgb(183,98,96)" stroke="rgb(183,98,96)" stroke-width="1" opacity="0.996078431372549" d="M 302.5 178 L 305 181.5 L 302.5 183 L 302.5 182 Q 304.8 182.8 304 180.5 L 302.5 178 Z " /><path fill="rgb(183,98,96)" stroke="rgb(183,98,96)" stroke-width="1" opacity="0.996078431372549" d="M 192.5 179 L 194 179.5 L 192 180 L 192.5 183 L 194 182.5 Q 194.7 185.5 191 184 Q 190 180.2 192.5 179 Z " /><path fill="rgb(183,98,96)" stroke="rgb(183,98,96)" stroke-width="1" opacity="0.996078431372549" d="M 296.5 179 L 297.5 182 L 299 181.5 Q 297.5 184.5 296 181.5 L 296.5 179 Z " /><path fill="rgb(183,98,96)" stroke="rgb(183,98,96)" stroke-width="1" opacity="0.996078431372549" d="M 192.5 185 L 192.5 187 Q 194.8 186.3 194 188.5 L 192 191.5 L 192.5 193 Q 189.8 191.8 191 186.5 L 192.5 185 Z " /><path fill="rgb(183,98,96)" stroke="rgb(183,98,96)" stroke-width="1" opacity="0.996078431372549" d="M 294.5 188 L 296.5 188 L 298 188.5 L 294 191.5 L 294 189.5 L 294.5 188 Z " /><path fill="rgb(183,98,96)" stroke="rgb(183,98,96)" stroke-width="1" opacity="0.996078431372549" d="M 200 189 Q 204.1 187.7 203 191 L 201 191.5 L 201.5 193 L 199 191.5 L 200 189 Z " /><path fill="rgb(183,98,96)" stroke="rgb(183,98,96)" stroke-width="1" opacity="0.996078431372549" d="M 206 189 L 240 189.5 L 223.5 190 L 222.5 191 L 206 190.5 L 206 189 Z " /><path fill="rgb(183,98,96)" stroke="rgb(183,98,96)" stroke-width="1" opacity="0.996078431372549" d="M 248.5 189 L 281 189.5 L 248.5 190 L 248.5 189 Z " /><path fill="rgb(183,98,96)" stroke="rgb(183,98,96)" stroke-width="1" opacity="0.996078431372549" d="M 292.5 191 L 291.5 193 L 290 192.5 L 292.5 191 Z " /><path fill="rgb(183,98,96)" stroke="rgb(183,98,96)" stroke-width="1" opacity="0.996078431372549" d="M 161.5 207 L 163 209.5 L 162 211.5 L 165 212.5 L 164.5 215 L 158 212.5 L 158.5 210 L 159 212 Q 161.7 213.1 161 210.5 L 160 208.5 L 161.5 207 Z " /><path fill="rgb(183,98,96)" stroke="rgb(183,98,96)" stroke-width="1" opacity="0.996078431372549" d="M 189 207 L 211.5 207 L 213 208.5 L 212.5 210 L 190.5 210 L 189 207 Z " /><path fill="rgb(183,98,96)" stroke="rgb(183,98,96)" stroke-width="1" opacity="0.996078431372549" d="M 322.5 207 L 324 209.5 L 322 210 L 321.5 212 L 320 209.5 L 322 209.5 L 322.5 207 Z " /><path fill="rgb(183,98,96)" stroke="rgb(183,98,96)" stroke-width="1" opacity="0.996078431372549" d="M 170.5 208 L 176.5 208 L 188 213.5 L 176.5 214 L 174 212.5 L 176 212 Q 177.5 208.3 174.5 209 L 172 210.5 L 173 213 Q 169.7 214.3 171 209.5 L 170.5 208 Z " /><path fill="rgb(183,98,96)" stroke="rgb(183,98,96)" stroke-width="1" opacity="0.996078431372549" d="M 222 210 Q 225.3 208.9 224 213 Q 220.6 214.7 213.5 214 L 214.5 212 L 216.5 211 L 218.5 211 L 221.5 212 L 222 210 Z " /><path fill="rgb(183,98,96)" stroke="rgb(183,98,96)" stroke-width="1" opacity="0.996078431372549" d="M 320.5 214 L 324 216.5 L 224.5 217 L 225.5 215 L 319.5 215 L 320.5 214 Z " /><path fill="rgb(183,98,96)" stroke="rgb(183,98,96)" stroke-width="1" opacity="0.996078431372549" d="M 184.5 215 Q 190 213.5 191.5 216 Q 192.8 213.8 194 216.5 L 183.5 217 L 184.5 215 Z " /><path fill="rgb(183,98,96)" stroke="rgb(183,98,96)" stroke-width="1" opacity="0.996078431372549" d="M 208.5 216 L 211 216.5 L 208.5 217 L 208.5 216 Z " /><path fill="rgb(183,98,96)" stroke="rgb(183,98,96)" stroke-width="1" opacity="0.996078431372549" d="M 212.5 216 L 214.5 217 L 218.5 216 L 218.5 217 L 214.5 218 L 212.5 216 Z " /><path fill="rgb(214,213,217)" stroke="rgb(214,213,217)" stroke-width="1" opacity="0.8627450980392157" d="M 45.5 43 L 78 43.5 L 45.5 44 L 45.5 43 Z " /><path fill="rgb(0,0,0)" stroke="rgb(0,0,0)" stroke-width="1" opacity="0" d="M 0 0 L 368 0 L 368 360 L 0 360 L 0 0 Z M 63 42 L 62 43 L 46 43 L 44 45 L 44 324 L 45 324 L 88 324 L 88 327 L 95 329 L 97 328 L 101 330 L 103 329 L 106 330 L 110 329 L 145 329 L 146 330 L 151 328 L 156 330 Q 162 332 164 329 L 203 329 L 204 328 L 206 329 Q 210 330 212 328 L 215 328 L 216 324 L 281 324 L 281 286 L 220 286 L 219 285 L 217 286 L 215 285 L 215 223 L 214 221 L 186 221 L 186 280 L 186 282 L 185 285 L 182 286 Q 172 287 168 285 L 168 271 L 167 270 L 167 232 L 168 231 L 167 229 L 167 220 L 168 219 L 331 219 L 331 44 L 328 42 L 326 42 L 203 42 L 202 43 L 194 43 L 192 43 L 190 42 L 175 42 L 174 43 L 140 43 L 139 42 L 87 42 L 86 43 L 66 43 L 63 42 Z " /><path fill="rgb(0,0,0)" stroke="rgb(0,0,0)" stroke-width="1" opacity="0" d="M 79 74 L 88.5 75 L 89.5 74 L 269.5 74 L 270.5 75 L 297.5 75 L 299.5 74 L 302 74.5 L 302 114.5 L 300.5 116 L 157.5 116 Q 156.5 116 157 120.5 L 156 121.5 L 156 211.5 Q 158.5 213 157 218.5 L 155.5 220 L 138 220 L 138 282.5 L 137 285 Q 131 287 120.5 286 L 118 285 L 118 222.5 L 116.5 221 L 89.5 221 L 88 222.5 L 88 285.5 L 86.5 286 L 84.5 286 L 79 286 L 79 275.5 L 78 274.5 L 78 227.5 L 79 226.5 L 79 182.5 L 78 181.5 L 78 126.5 L 79 125.5 L 79 89.5 L 78 88.5 L 78 77.5 L 79 74 Z " /><path fill="rgb(0,0,0)" stroke="rgb(0,0,0)" stroke-width="1" opacity="0" d="M 198 149 L 293.5 149 L 295 150.5 L 295 185.5 L 293.5 187 L 198 187 L 198 149 Z " /><path fill="rgb(181,98,90)" stroke="rgb(181,98,90)" stroke-width="1" opacity="0.996078431372549" d="M 94.5 44 L 318.5 44 L 327 45.5 L 323 46 L 323 48 L 327 48.5 L 327 208 Q 323.2 209 322 206.5 L 322 47.5 L 320.5 46 L 92 45.5 L 94.5 44 Z " /><path fill="rgb(181,98,90)" stroke="rgb(181,98,90)" stroke-width="1" opacity="0.996078431372549" d="M 85.5 45 L 87 47.5 L 86 47.5 L 85.5 45 Z " /><path fill="rgb(181,98,90)" stroke="rgb(181,98,90)" stroke-width="1" opacity="0.996078431372549" d="M 113.5 63 L 114 66 Q 111.3 67.1 112 64.5 L 113.5 63 Z " /><path fill="rgb(181,98,90)" stroke="rgb(181,98,90)" stroke-width="1" opacity="0.996078431372549" d="M 115.5 63 L 138.5 64 L 144 64.5 L 139.5 66 L 115 66 L 115.5 63 Z " /><path fill="rgb(181,98,90)" stroke="rgb(181,98,90)" stroke-width="1" opacity="0.996078431372549" d="M 297.5 63 L 300 64 L 299 66.5 L 300 69 L 296 70 L 295 65.5 L 297 65 L 297.5 63 Z " /><path fill="rgb(181,98,90)" stroke="rgb(181,98,90)" stroke-width="1" opacity="0.996078431372549" d="M 97.5 66 L 111 66.5 Q 108.3 68.2 112.5 70 L 143.5 70 L 145 68.5 L 145.5 66 L 288 66 Q 286.7 69.3 291.5 68 L 293 70.5 L 291.5 70 L 145.5 70 Q 144.5 74 138.5 73 L 128.5 71 L 119.5 73 Q 118 70.5 112.5 72 L 110.5 70 L 81 70 L 81.5 68 L 95.5 68 L 97.5 66 Z " /><path fill="rgb(181,98,90)" stroke="rgb(181,98,90)" stroke-width="1" opacity="0.996078431372549" d="M 302.5 72 L 303.5 74 L 302.5 72 Z " /><path fill="rgb(181,98,90)" stroke="rgb(181,98,90)" stroke-width="1" opacity="0.996078431372549" d="M 160.5 117 L 163.5 118 L 165.5 117 L 165.5 120 L 162.5 118 L 161.5 120 L 160.5 117 Z " /><path fill="rgb(181,98,90)" stroke="rgb(181,98,90)" stroke-width="1" opacity="0.996078431372549" d="M 176 117 L 287.5 117 L 288 119 L 285.5 120 L 177.5 120 L 176 118.5 L 176 117 Z " /><path fill="rgb(181,98,90)" stroke="rgb(181,98,90)" stroke-width="1" opacity="0.996078431372549" d="M 300.5 117 Q 304.6 119.3 305 124 L 300 124 L 300 122.5 L 303 121.5 L 300.5 118 L 299 118.5 L 300.5 117 Z " /><path fill="rgb(181,98,90)" stroke="rgb(181,98,90)" stroke-width="1" opacity="0.996078431372549" d="M 290.5 121 Q 295.9 120.1 298 122.5 L 296.5 124 L 286.5 124 L 285.5 125 L 176.5 124 L 174.5 123 L 161.5 124 L 159.5 125 L 159 123.5 L 160.5 122 L 177.5 122 L 287.5 122 L 290.5 121 Z " /><path fill="rgb(181,98,90)" stroke="rgb(181,98,90)" stroke-width="1" opacity="0.996078431372549" d="M 161.5 126 L 174.5 127 L 176 127.5 L 173.5 129 L 161.5 129 L 160 127.5 L 161.5 126 Z " /><path fill="rgb(181,98,90)" stroke="rgb(181,98,90)" stroke-width="1" opacity="0.996078431372549" d="M 294 126 L 300 127.5 L 292.5 129 L 292.5 128 Q 295.1 128.7 294 126 Z " /><path fill="rgb(181,98,90)" stroke="rgb(181,98,90)" stroke-width="1" opacity="0.996078431372549" d="M 302 126 L 305 127.5 L 301.5 129 L 302 127.5 L 302 126 Z " /><path fill="rgb(181,98,90)" stroke="rgb(181,98,90)" stroke-width="1" opacity="0.996078431372549" d="M 194 143 Q 197.8 142 199 144.5 L 197.5 145 L 196 144.5 L 194.5 147 L 194 143 Z " /><path fill="rgb(181,98,90)" stroke="rgb(181,98,90)" stroke-width="1" opacity="0.996078431372549" d="M 203 143 Q 207.5 141.5 206 146 Q 201.5 147.5 203 143 Z " /><path fill="rgb(181,98,90)" stroke="rgb(181,98,90)" stroke-width="1" opacity="0.996078431372549" d="M 209.5 144 L 288 144.5 L 209.5 145 L 209.5 144 Z " /><path fill="rgb(181,98,90)" stroke="rgb(181,98,90)" stroke-width="1" opacity="0.996078431372549" d="M 298 144 Q 301 142.8 300 146.5 L 301 150.5 L 300 151.5 L 300 176.5 L 301.5 179 L 299.5 180 L 298 177.5 L 298 159.5 L 299 158.5 L 299 149.5 L 298 144 Z " /><path fill="rgb(181,98,90)" stroke="rgb(181,98,90)" stroke-width="1" opacity="0.996078431372549" d="M 294.5 145 L 295.5 147 L 294.5 145 Z " /><path fill="rgb(181,98,90)" stroke="rgb(181,98,90)" stroke-width="1" opacity="0.996078431372549" d="M 194 150 L 196 150.5 L 195 152.5 L 196 154.5 L 194 153.5 L 194 150 Z " /><path fill="rgb(181,98,90)" stroke="rgb(181,98,90)" stroke-width="1" opacity="0.996078431372549" d="M 195.5 156 L 196 158 L 194 157.5 L 195.5 156 Z " /><path fill="rgb(181,98,90)" stroke="rgb(181,98,90)" stroke-width="1" opacity="0.996078431372549" d="M 303.5 160 L 304 175.5 L 303 175.5 L 303.5 160 Z " /><path fill="rgb(181,98,90)" stroke="rgb(181,98,90)" stroke-width="1" opacity="0.996078431372549" d="M 193.5 175 Q 196.9 174.1 195 179.5 L 194 179.5 L 193.5 175 Z " /><path fill="rgb(181,98,90)" stroke="rgb(181,98,90)" stroke-width="1" opacity="0.996078431372549" d="M 159.5 177 L 160 207.5 L 158 208.5 L 159 206.5 L 159.5 177 Z " /><path fill="rgb(181,98,90)" stroke="rgb(181,98,90)" stroke-width="1" opacity="0.996078431372549" d="M 195.5 184 L 196 186 L 194 185.5 L 195.5 184 Z " /><path fill="rgb(181,98,90)" stroke="rgb(181,98,90)" stroke-width="1" opacity="0.996078431372549" d="M 299.5 186 L 300.5 191 L 302 190.5 L 300.5 193 Q 295.9 193.6 294.5 191 L 293 191.5 L 298 188.5 L 299.5 186 Z " /><path fill="rgb(181,98,90)" stroke="rgb(181,98,90)" stroke-width="1" opacity="0.996078431372549" d="M 288.5 189 L 289.5 192 L 291 191.5 L 288 193 L 287.5 191 L 240.5 191 L 239.5 192 L 224.5 192 L 224.5 191 L 239.5 191 L 240.5 190 L 287.5 190 L 288.5 189 Z " /><path fill="rgb(181,98,90)" stroke="rgb(181,98,90)" stroke-width="1" opacity="0.996078431372549" d="M 195.5 190 L 196.5 192 L 197.5 190 L 198 193 Q 193.3 194.5 195.5 190 Z " /><path fill="rgb(181,98,90)" stroke="rgb(181,98,90)" stroke-width="1" opacity="0.996078431372549" d="M 203 190 L 207 191.5 L 204.5 193 L 203 190 Z " /><path fill="rgb(181,98,90)" stroke="rgb(181,98,90)" stroke-width="1" opacity="0.996078431372549" d="M 165.5 207 L 171 210.5 L 164.5 212 Q 161.8 210.8 164 209.5 L 165.5 207 Z " /><path fill="rgb(181,98,90)" stroke="rgb(181,98,90)" stroke-width="1" opacity="0.996078431372549" d="M 179.5 207 L 181.5 207 Q 186.7 206.2 187.5 210 L 193 210 L 192 214 L 188.5 214 L 182.5 210 L 177 208.5 L 179.5 207 Z " /><path fill="rgb(181,98,90)" stroke="rgb(181,98,90)" stroke-width="1" opacity="0.996078431372549" d="M 217.5 207 Q 223.5 205.5 225 208.5 L 225.5 210 L 319.5 210 L 320 214 L 225.5 214 L 224 215.5 Q 224.8 218.1 221.5 217 L 219 216 Q 217.7 212.7 222.5 214 L 225 213 L 225 210 L 215.5 210 L 215 208 L 217.5 207 Z " /><path fill="rgb(181,98,90)" stroke="rgb(181,98,90)" stroke-width="1" opacity="0.996078431372549" d="M 207.5 210 Q 212.8 208.8 214 211.5 L 211.5 215 L 209.5 216 L 207 212.5 L 207.5 210 Z " /><path fill="rgb(181,98,90)" stroke="rgb(181,98,90)" stroke-width="1" opacity="0.996078431372549" d="M 324 210 L 328 211.5 L 329 214.5 L 328.5 217 L 325.5 216 L 322 214.5 L 322 212 Q 325 213 324 210 Z " /><path fill="rgb(181,98,90)" stroke="rgb(181,98,90)" stroke-width="1" opacity="0.996078431372549" d="M 160 214 L 164 214 L 164 215.5 L 164.5 217 L 162.5 216 L 160 217 L 160 214 Z " /><path fill="rgb(181,98,90)" stroke="rgb(181,98,90)" stroke-width="1" opacity="0.996078431372549" d="M 173.5 214 Q 180.2 212.3 182 215.5 L 179.5 217 L 175.5 217 L 168.5 217 L 168 215 L 173.5 214 Z " /><path fill="rgb(185,97,92)" stroke="rgb(185,97,92)" stroke-width="1" opacity="1" d="M 89.5 44 Q 93.3 43 92 46 L 88.5 48 L 87 45 L 89.5 44 Z " /><path fill="rgb(185,97,92)" stroke="rgb(185,97,92)" stroke-width="1" opacity="1" d="M 323 46 L 328 46 L 328 48 L 323 48 L 323 46 Z " /><path fill="rgb(185,97,92)" stroke="rgb(185,97,92)" stroke-width="1" opacity="1" d="M 300 64 Q 303.7 62.8 302 68 L 299 66.5 L 300 64 Z " /><path fill="rgb(185,97,92)" stroke="rgb(185,97,92)" stroke-width="1" opacity="1" d="M 294.5 65 Q 297.5 66.6 296 72 L 293 70.5 Q 292 66 294.5 65 Z " /><path fill="rgb(185,97,92)" stroke="rgb(185,97,92)" stroke-width="1" opacity="1" d="M 124.5 66 L 128 66.5 L 124.5 67 L 124.5 66 Z " /><path fill="rgb(185,97,92)" stroke="rgb(185,97,92)" stroke-width="1" opacity="1" d="M 134.5 68 L 137 68.5 Q 134.6 71.1 128.5 70 L 128.5 69 Q 133.3 70.3 134.5 68 Z " /><path fill="rgb(185,97,92)" stroke="rgb(185,97,92)" stroke-width="1" opacity="1" d="M 302.5 71 L 305 72.5 L 303.5 73 L 302.5 71 Z " /><path fill="rgb(185,97,92)" stroke="rgb(185,97,92)" stroke-width="1" opacity="1" d="M 114.5 72 L 118 72.5 L 114.5 73 L 114.5 72 Z " /><path fill="rgb(185,97,92)" stroke="rgb(185,97,92)" stroke-width="1" opacity="1" d="M 303.5 116 Q 306.5 117.5 303.5 119 Q 300.5 117.5 303.5 116 Z " /><path fill="rgb(185,97,92)" stroke="rgb(185,97,92)" stroke-width="1" opacity="1" d="M 163.5 119 L 162.5 121 L 158.5 124 L 158 120 L 163.5 119 Z " /><path fill="rgb(185,97,92)" stroke="rgb(185,97,92)" stroke-width="1" opacity="1" d="M 289.5 120 L 290 122 L 288 121.5 L 289.5 120 Z " /><path fill="rgb(185,97,92)" stroke="rgb(185,97,92)" stroke-width="1" opacity="1" d="M 297.5 121 L 300 121.5 L 299.5 124 L 297.5 121 Z " /><path fill="rgb(185,97,92)" stroke="rgb(185,97,92)" stroke-width="1" opacity="1" d="M 291.5 124 Q 296.1 122.8 294 128 Q 290.3 129.5 291 126.5 L 291.5 124 Z " /><path fill="rgb(185,97,92)" stroke="rgb(185,97,92)" stroke-width="1" opacity="1" d="M 301.5 125 L 302 128 L 299 126.5 L 301.5 125 Z " /><path fill="rgb(185,97,92)" stroke="rgb(185,97,92)" stroke-width="1" opacity="1" d="M 295.5 143 L 298 144.5 Q 299.3 149.3 296 148 Q 297.5 144.3 294.5 145 L 295.5 143 Z " /><path fill="rgb(185,97,92)" stroke="rgb(185,97,92)" stroke-width="1" opacity="1" d="M 196.5 144 L 198 146.5 Q 197 149 192.5 148 L 192.5 147 L 196 145.5 L 196.5 144 Z " /><path fill="rgb(185,97,92)" stroke="rgb(185,97,92)" stroke-width="1" opacity="1" d="M 206 144 Q 210.1 142.7 209 146 Q 204.9 147.3 206 144 Z " /><path fill="rgb(185,97,92)" stroke="rgb(185,97,92)" stroke-width="1" opacity="1" d="M 288.5 144 L 291 144.5 Q 288.9 147.8 288.5 144 Z " /><path fill="rgb(185,97,92)" stroke="rgb(185,97,92)" stroke-width="1" opacity="1" d="M 301.5 149 L 302 155.5 L 300.5 160 L 300 151.5 L 301.5 149 Z " /><path fill="rgb(185,97,92)" stroke="rgb(185,97,92)" stroke-width="1" opacity="1" d="M 192 153 L 196 155.5 Q 194.8 158.3 193.5 156 Q 190.5 156.7 192 153 Z " /><path fill="rgb(185,97,92)" stroke="rgb(185,97,92)" stroke-width="1" opacity="1" d="M 194 158 Q 197 157 196 160 Q 193 161 194 158 Z " /><path fill="rgb(185,97,92)" stroke="rgb(185,97,92)" stroke-width="1" opacity="1" d="M 194.5 172 L 195 174.5 L 194 174.5 L 194.5 172 Z " /><path fill="rgb(185,97,92)" stroke="rgb(185,97,92)" stroke-width="1" opacity="1" d="M 297.5 176 L 299.5 180 L 302.5 179 L 304 182 L 301.5 183 L 298.5 181 L 297 181.5 L 296 177.5 L 297.5 176 Z " /><path fill="rgb(185,97,92)" stroke="rgb(185,97,92)" stroke-width="1" opacity="1" d="M 192 180 L 196 180 L 196 181.5 L 194.5 183 L 192 182.5 L 192 180 Z " /><path fill="rgb(185,97,92)" stroke="rgb(185,97,92)" stroke-width="1" opacity="1" d="M 300 186 Q 303.3 184.7 302 189.5 L 300 190.5 L 300 186 Z " /><path fill="rgb(185,97,92)" stroke="rgb(185,97,92)" stroke-width="1" opacity="1" d="M 192.5 188 L 194.5 188 L 198 189.5 L 196.5 192 L 196 190 Q 192.2 190.8 192.5 188 Z " /><path fill="rgb(185,97,92)" stroke="rgb(185,97,92)" stroke-width="1" opacity="1" d="M 207.5 190 L 208.5 191 L 224 191.5 L 207 192 L 207.5 190 Z " /><path fill="rgb(185,97,92)" stroke="rgb(185,97,92)" stroke-width="1" opacity="1" d="M 290.5 190 Q 292.8 189.3 292 191.5 L 289 191.5 L 290.5 190 Z " /><path fill="rgb(185,97,92)" stroke="rgb(185,97,92)" stroke-width="1" opacity="1" d="M 240.5 191 L 288 191.5 L 240.5 192 L 240.5 191 Z " /><path fill="rgb(185,97,92)" stroke="rgb(185,97,92)" stroke-width="1" opacity="1" d="M 159.5 208 L 161 212 L 159 211.5 L 159.5 210 L 158 209.5 L 159.5 208 Z " /><path fill="rgb(185,97,92)" stroke="rgb(185,97,92)" stroke-width="1" opacity="1" d="M 174.5 209 Q 177.5 208.2 176 212 L 172 210.5 L 174.5 209 Z " /><path fill="rgb(185,97,92)" stroke="rgb(185,97,92)" stroke-width="1" opacity="1" d="M 193 210 L 206.5 210 L 208 211.5 L 193 212 L 193 210 Z " /><path fill="rgb(185,97,92)" stroke="rgb(185,97,92)" stroke-width="1" opacity="1" d="M 322 210 Q 325 209 324 212 Q 321 213 322 210 Z " /><path fill="rgb(185,97,92)" stroke="rgb(185,97,92)" stroke-width="1" opacity="1" d="M 194.5 216 L 208 216.5 L 194.5 217 L 194.5 216 Z " /><path fill="rgb(216,216,217)" stroke="rgb(216,216,217)" stroke-width="1" opacity="0.996078431372549" d="M 46 44 L 59.5 44 L 60.5 45 L 65 44 L 65.5 46 L 66 44 L 78 44 L 78 73.5 L 76 76.5 L 77 79.5 L 77 81.5 L 77 172.5 L 76 173.5 L 77 174.5 L 77 226.5 L 77 228.5 L 77 271.5 L 76 272.5 L 77 276.5 L 77 278.5 L 76 283.5 L 78 284.5 Q 75.8 285.8 78.5 287 L 81.5 288 L 84.5 287 L 89 288 L 89 322 L 45 322 L 45 46.5 L 46 44 Z M 74 275 L 73 277 L 75 276 L 74 275 Z " /><path fill="rgb(216,216,217)" stroke="rgb(216,216,217)" stroke-width="1" opacity="0.996078431372549" d="M 120.5 287 L 129.5 287 L 130.5 288 L 132.5 287 L 134.5 287 L 139 287 L 139 300 L 117 300 L 117 288 L 120.5 287 Z " /><path fill="rgb(216,216,217)" stroke="rgb(216,216,217)" stroke-width="1" opacity="0.996078431372549" d="M 171.5 287 L 173.5 288 L 177.5 287 L 179.5 287 L 187 287 L 187 300 L 166.5 300 L 166 298.5 L 166 296.5 L 166 288 L 170.5 288 L 171.5 287 Z " /><path fill="rgb(216,216,217)" stroke="rgb(216,216,217)" stroke-width="1" opacity="0.996078431372549" d="M 221.5 287 L 223.5 287 L 278.5 287 L 280 288.5 L 280 320.5 L 278.5 322 L 217.5 322 L 215.5 321 L 214 321.5 L 214 289.5 L 216.5 289 L 221.5 287 Z " /><path fill="rgb(181,99,93)" stroke="rgb(181,99,93)" stroke-width="1" opacity="0.996078431372549" d="M 84.5 44 L 86 44.5 L 81.5 47 L 82.5 45 L 84.5 44 Z " /><path fill="rgb(181,99,93)" stroke="rgb(181,99,93)" stroke-width="1" opacity="0.996078431372549" d="M 319.5 44 Q 326.3 42.3 328 45.5 L 326.5 45 L 319.5 45 L 319.5 44 Z " /><path fill="rgb(181,99,93)" stroke="rgb(181,99,93)" stroke-width="1" opacity="0.996078431372549" d="M 91.5 46 L 320.5 46 L 322 47.5 L 321.5 210 L 319.5 210 L 225.5 210 L 225 212.5 L 224 212.5 L 225 208.5 Q 223.5 205.5 217.5 207 L 215 208 Q 213.9 211.5 221.5 210 L 221.5 211 L 217.5 212 L 215.5 212 L 213 210.5 L 211.5 207 L 189.5 207 L 189 208.5 L 189.5 210 Q 185 210.5 184.5 207 L 181.5 207 L 178.5 208 L 170 208.5 L 170.5 210 L 165.5 207 L 163.5 210 L 161.5 207 L 160 207.5 L 159.5 177 L 158.5 207 L 158 128.5 L 159 128.5 L 159.5 152 L 160.5 128 L 174.5 128 L 287 127.5 L 174 126.5 L 176 126 L 176.5 124 L 286.5 124 L 288 124.5 L 288 126.5 L 288.5 128 L 291 127 Q 289.6 130.7 295.5 129 L 299.5 128 L 303.5 129 Q 306.8 127.3 303 125.5 L 305 122.5 L 303.5 120 L 301.5 121 L 300.5 119 L 302.5 120 L 305 119 L 304 115.5 L 305 113.5 L 304 110.5 L 304 80.5 L 305 79.5 L 305 77.5 L 304 74.5 L 305 71.5 L 302 70 L 301.5 72 L 298.5 70 L 297 70.5 L 305 66.5 L 302.5 63 L 298.5 64 L 294.5 64 L 292.5 63 L 290 64 Q 288.5 67.8 291.5 67 L 292.5 69 L 289 68 L 288.5 64 L 288 66 L 144.5 66 Q 145.5 62.5 138.5 64 L 115.5 63 L 112 64.5 L 111.5 66 L 96.5 66 L 93.5 68 L 93 66 L 86.5 64 L 83 65 L 83 68 Q 80 67 81 70 L 110.5 70 L 112 71.5 L 84.5 72 L 80 71 L 79 68.5 L 81 68 L 80 63.5 L 81 62.5 L 81 48 L 86.5 49 L 88.5 49 L 91.5 46 Z M 195 143 L 191 146 L 192 151 L 191 154 L 193 157 Q 195 156 194 161 L 192 161 L 192 175 Q 195 176 194 179 L 191 181 L 192 185 L 191 187 L 192 192 L 195 190 L 194 192 L 198 193 L 199 191 L 202 193 L 203 191 L 206 193 L 209 192 L 288 192 L 289 193 L 293 192 L 301 193 L 303 189 L 302 186 Q 299 187 300 184 L 300 182 L 304 183 L 305 181 Q 301 179 304 178 L 304 160 L 303 176 L 302 176 L 302 160 Q 305 161 304 156 L 302 156 L 304 148 L 302 147 Q 298 148 300 144 L 298 143 L 294 144 L 291 143 L 288 144 L 210 144 Q 208 142 204 143 L 202 143 L 200 144 L 195 143 Z M 160 168 L 159 175 L 160 175 L 160 168 Z M 303 184 L 304 186 Q 305 183 303 184 Z " /><path fill="rgb(181,99,93)" stroke="rgb(181,99,93)" stroke-width="1" opacity="0.996078431372549" d="M 327.5 49 L 328 207.5 L 327 210 L 323 208.5 L 327 208 L 327.5 49 Z " /><path fill="rgb(181,99,93)" stroke="rgb(181,99,93)" stroke-width="1" opacity="0.996078431372549" d="M 112.5 67 L 112.5 70 Q 109.5 68.5 112.5 67 Z " /><path fill="rgb(181,99,93)" stroke="rgb(181,99,93)" stroke-width="1" opacity="0.996078431372549" d="M 120.5 68 L 124 69.5 L 114.5 70 L 114.5 69 Q 119.2 70.3 120.5 68 Z " /><path fill="rgb(181,99,93)" stroke="rgb(181,99,93)" stroke-width="1" opacity="0.996078431372549" d="M 144.5 68 L 143.5 70 L 137 69.5 L 144.5 68 Z " /><path fill="rgb(181,99,93)" stroke="rgb(181,99,93)" stroke-width="1" opacity="0.996078431372549" d="M 145.5 70 L 291.5 70 L 294 72.5 L 292.5 72 L 288.5 71 L 287.5 72 L 144.5 72 L 143.5 73 L 145.5 70 Z " /><path fill="rgb(181,99,93)" stroke="rgb(181,99,93)" stroke-width="1" opacity="0.996078431372549" d="M 133.5 72 L 137 72.5 L 133.5 73 L 133.5 72 Z " /><path fill="rgb(181,99,93)" stroke="rgb(181,99,93)" stroke-width="1" opacity="0.996078431372549" d="M 166.5 117 L 167 119 L 165 118.5 L 166.5 117 Z " /><path fill="rgb(181,99,93)" stroke="rgb(181,99,93)" stroke-width="1" opacity="0.996078431372549" d="M 171.5 117 Q 176.9 115.1 176 118.5 L 176.5 120 L 168.5 120 L 168 118 L 171.5 117 Z " /><path fill="rgb(181,99,93)" stroke="rgb(181,99,93)" stroke-width="1" opacity="0.996078431372549" d="M 291.5 119 L 296 120.5 L 291 121 L 291.5 119 Z " /><path fill="rgb(181,99,93)" stroke="rgb(181,99,93)" stroke-width="1" opacity="0.996078431372549" d="M 165.5 121 L 174 121.5 L 165.5 122 L 165.5 121 Z " /><path fill="rgb(181,99,93)" stroke="rgb(181,99,93)" stroke-width="1" opacity="0.996078431372549" d="M 239.5 145 L 279.5 145 L 288 146.5 L 241.5 147 L 239.5 145 Z " /><path fill="rgb(181,99,93)" stroke="rgb(181,99,93)" stroke-width="1" opacity="0.996078431372549" d="M 298.5 149 L 299 156.5 L 297 155.5 L 298 151.5 Q 295.7 150.3 298.5 149 Z " /><path fill="rgb(181,99,93)" stroke="rgb(181,99,93)" stroke-width="1" opacity="0.996078431372549" d="M 195.5 160 L 196 179.5 L 195 179.5 L 195.5 160 Z " /><path fill="rgb(181,99,93)" stroke="rgb(181,99,93)" stroke-width="1" opacity="0.996078431372549" d="M 296 160 L 298 160.5 L 298 176 L 296 175.5 L 296 160 Z " /><path fill="rgb(181,99,93)" stroke="rgb(181,99,93)" stroke-width="1" opacity="0.996078431372549" d="M 195.5 182 L 194.5 184 L 195.5 182 Z " /><path fill="rgb(181,99,93)" stroke="rgb(181,99,93)" stroke-width="1" opacity="0.996078431372549" d="M 193.5 186 L 196 186.5 L 193.5 187 L 193.5 186 Z " /><path fill="rgb(181,99,93)" stroke="rgb(181,99,93)" stroke-width="1" opacity="0.996078431372549" d="M 298.5 186 L 297.5 188 L 298.5 186 Z " /><path fill="rgb(181,99,93)" stroke="rgb(181,99,93)" stroke-width="1" opacity="0.996078431372549" d="M 223.5 190 L 240 190.5 L 223.5 191 L 223.5 190 Z " /><path fill="rgb(181,99,93)" stroke="rgb(181,99,93)" stroke-width="1" opacity="0.996078431372549" d="M 182.5 210 L 185 211.5 L 183.5 212 L 182.5 210 Z " /><path fill="rgb(181,99,93)" stroke="rgb(181,99,93)" stroke-width="1" opacity="0.996078431372549" d="M 168.5 211 L 171 211 Q 169.9 213.7 172.5 213 L 174.5 213 L 176 213.5 L 169 215 Q 170.1 211.7 166 213 L 166.5 215 L 168 214.5 L 167.5 217 L 164 215.5 L 165 212 L 168.5 211 Z " /><path fill="rgb(181,99,93)" stroke="rgb(181,99,93)" stroke-width="1" opacity="0.996078431372549" d="M 320.5 211 L 322 214.5 L 319.5 215 L 225.5 215 L 224.5 216 L 225.5 214 L 319.5 214 L 320.5 211 Z " /><path fill="rgb(181,99,93)" stroke="rgb(181,99,93)" stroke-width="1" opacity="0.996078431372549" d="M 192.5 212 L 206.5 212 L 208 213.5 L 209 215.5 L 193.5 216 L 190.5 215 L 186 214.5 L 193 213.5 L 192.5 212 Z " /><path fill="rgb(181,99,93)" stroke="rgb(181,99,93)" stroke-width="1" opacity="0.996078431372549" d="M 181.5 214 Q 183.8 213.3 183 215.5 L 181.5 214 Z " /><path fill="rgb(181,99,93)" stroke="rgb(181,99,93)" stroke-width="1" opacity="0.996078431372549" d="M 212.5 214 L 211.5 216 L 210 215.5 L 212.5 214 Z " /><path fill="rgb(181,99,93)" stroke="rgb(181,99,93)" stroke-width="1" opacity="0.996078431372549" d="M 218.5 214 L 220 216.5 L 218 215.5 L 218.5 214 Z " /><path fill="rgb(181,99,93)" stroke="rgb(181,99,93)" stroke-width="1" opacity="0.996078431372549" d="M 328.5 215 L 327.5 217 L 328.5 215 Z " /><path fill="rgb(177,100,97)" stroke="rgb(177,100,97)" stroke-width="1" opacity="0.996078431372549" d="M 78 44 L 83 44.5 L 79 46.5 L 79 68.5 L 80 71 Q 83.8 70 85 72.5 L 82.5 73 L 80.5 73 L 78 72.5 L 78 44 Z " /><path fill="rgb(177,100,97)" stroke="rgb(177,100,97)" stroke-width="1" opacity="0.996078431372549" d="M 327.5 44 L 330 44.5 L 330 217.5 L 329 217.5 L 329 47.5 L 327.5 44 Z " /><path fill="rgb(177,100,97)" stroke="rgb(177,100,97)" stroke-width="1" opacity="0.996078431372549" d="M 290 64 Q 293.3 62.9 292 67 Q 288.7 68.1 290 64 Z " /><path fill="rgb(177,100,97)" stroke="rgb(177,100,97)" stroke-width="1" opacity="0.996078431372549" d="M 112.5 68 L 120 68.5 L 113.5 70 L 112.5 68 Z " /><path fill="rgb(177,100,97)" stroke="rgb(177,100,97)" stroke-width="1" opacity="0.996078431372549" d="M 298.5 70 L 301 71 Q 302.3 74.3 297.5 73 L 298 71.5 L 298.5 70 Z " /><path fill="rgb(177,100,97)" stroke="rgb(177,100,97)" stroke-width="1" opacity="0.996078431372549" d="M 128.5 71 L 133 71.5 Q 130.6 74.1 124.5 73 L 124.5 72 L 128.5 71 Z " /><path fill="rgb(177,100,97)" stroke="rgb(177,100,97)" stroke-width="1" opacity="0.996078431372549" d="M 289.5 71 L 293 72.5 L 145.5 73 L 145.5 72 L 288.5 72 L 289.5 71 Z " /><path fill="rgb(177,100,97)" stroke="rgb(177,100,97)" stroke-width="1" opacity="0.996078431372549" d="M 87.5 72 L 111 72.5 L 87.5 73 L 87.5 72 Z " /><path fill="rgb(177,100,97)" stroke="rgb(177,100,97)" stroke-width="1" opacity="0.996078431372549" d="M 158 117 Q 160.7 115.9 160 118.5 L 158 119.5 L 158 117 Z " /><path fill="rgb(177,100,97)" stroke="rgb(177,100,97)" stroke-width="1" opacity="0.996078431372549" d="M 168.5 117 L 171 117.5 L 168.5 118 L 168.5 117 Z " /><path fill="rgb(177,100,97)" stroke="rgb(177,100,97)" stroke-width="1" opacity="0.996078431372549" d="M 290.5 117 L 297 117.5 Q 296.5 120.5 292.5 120 L 290.5 117 Z " /><path fill="rgb(177,100,97)" stroke="rgb(177,100,97)" stroke-width="1" opacity="0.996078431372549" d="M 288.5 124 Q 291.1 123.2 290 126.5 L 288 127.5 L 287 125.5 L 288.5 124 Z " /><path fill="rgb(177,100,97)" stroke="rgb(177,100,97)" stroke-width="1" opacity="0.996078431372549" d="M 295 124 Q 298.7 122.5 298 125.5 Q 296.5 128.5 295 125.5 L 295 124 Z " /><path fill="rgb(177,100,97)" stroke="rgb(177,100,97)" stroke-width="1" opacity="0.996078431372549" d="M 158 125 Q 161.3 123.7 160 128.5 L 158 127.5 L 158 125 Z " /><path fill="rgb(177,100,97)" stroke="rgb(177,100,97)" stroke-width="1" opacity="0.996078431372549" d="M 199.5 144 L 200 147 L 205.5 146 L 206.5 147 L 288.5 147 L 293 145.5 L 292.5 144 L 295 147.5 L 198 148 L 199.5 144 Z " /><path fill="rgb(177,100,97)" stroke="rgb(177,100,97)" stroke-width="1" opacity="0.996078431372549" d="M 192 150 Q 195 149 194 152 Q 191 153 192 150 Z " /><path fill="rgb(177,100,97)" stroke="rgb(177,100,97)" stroke-width="1" opacity="0.996078431372549" d="M 296.5 150 L 298 153.5 L 296.5 159 L 296.5 150 Z " /><path fill="rgb(177,100,97)" stroke="rgb(177,100,97)" stroke-width="1" opacity="0.996078431372549" d="M 303.5 155 L 304 159 Q 301 160.3 302 156.5 L 303.5 155 Z " /><path fill="rgb(177,100,97)" stroke="rgb(177,100,97)" stroke-width="1" opacity="0.996078431372549" d="M 301 176 Q 305.1 174.7 304 178 Q 299.9 179.3 301 176 Z " /><path fill="rgb(177,100,97)" stroke="rgb(177,100,97)" stroke-width="1" opacity="0.996078431372549" d="M 296.5 182 L 300 183.5 Q 301.1 186.8 298.5 186 L 296 187.5 L 296.5 182 Z " /><path fill="rgb(177,100,97)" stroke="rgb(177,100,97)" stroke-width="1" opacity="0.996078431372549" d="M 195.5 183 L 193.5 186 L 192.5 184 L 195.5 183 Z " /><path fill="rgb(177,100,97)" stroke="rgb(177,100,97)" stroke-width="1" opacity="0.996078431372549" d="M 302.5 184 Q 304.8 183.3 304 185.5 L 302.5 184 Z " /><path fill="rgb(177,100,97)" stroke="rgb(177,100,97)" stroke-width="1" opacity="0.996078431372549" d="M 198.5 188 L 293.5 188 L 294 190.5 L 291.5 189 L 289.5 190 L 280.5 189 L 248.5 189 Q 246.8 191.8 240.5 190 L 239.5 189 L 206 189 L 205.5 191 L 200.5 189 L 198 190.5 L 198.5 188 Z " /><path fill="rgb(177,100,97)" stroke="rgb(177,100,97)" stroke-width="1" opacity="0.996078431372549" d="M 158.5 213 L 160 217 L 214 217.5 L 158 218 L 158.5 213 Z " /><path fill="rgb(177,100,97)" stroke="rgb(177,100,97)" stroke-width="1" opacity="0.996078431372549" d="M 183 214 L 186 214.5 L 183.5 216 L 183 214 Z " /><path fill="rgb(177,100,97)" stroke="rgb(177,100,97)" stroke-width="1" opacity="0.996078431372549" d="M 213.5 214 Q 219.3 212.3 218 216 L 212 215.5 L 213.5 214 Z " /><path fill="rgb(177,100,97)" stroke="rgb(177,100,97)" stroke-width="1" opacity="0.996078431372549" d="M 215.5 217 L 328 217.5 L 215.5 218 L 215.5 217 Z " /><path fill="rgb(221,221,223)" stroke="rgb(221,221,223)" stroke-width="1" opacity="0.9647058823529412" d="M 65.5 44 L 67 46.5 L 65 45.5 L 65.5 44 Z " /><path fill="rgb(221,221,223)" stroke="rgb(221,221,223)" stroke-width="1" opacity="0.9647058823529412" d="M 77.5 74 L 78 284 L 75.5 285 L 77 282.5 L 76.5 278 L 75 278.5 Q 77.8 277.8 77 273.5 L 77 271.5 L 76.5 228 Q 75.3 230.3 74 227.5 L 77 226.5 L 77 174.5 L 76 173.5 L 77 172.5 L 77 81.5 L 77 79.5 L 75 75.5 L 77 75.5 L 77.5 74 Z " /><path fill="rgb(221,221,223)" stroke="rgb(221,221,223)" stroke-width="1" opacity="0.9647058823529412" d="M 73.5 82 L 72.5 84 L 73.5 82 Z " /><path fill="rgb(221,221,223)" stroke="rgb(221,221,223)" stroke-width="1" opacity="0.9647058823529412" d="M 72.5 85 L 76 87.5 L 74.5 87 L 72.5 85 Z " /><path fill="rgb(221,221,223)" stroke="rgb(221,221,223)" stroke-width="1" opacity="0.9647058823529412" d="M 72.5 274 L 75 275.5 L 72.5 277 L 72.5 274 Z " /><path fill="rgb(221,221,223)" stroke="rgb(221,221,223)" stroke-width="1" opacity="0.9647058823529412" d="M 72.5 282 L 73.5 284 L 72.5 282 Z " /><path fill="rgb(221,221,223)" stroke="rgb(221,221,223)" stroke-width="1" opacity="0.9647058823529412" d="M 77.5 285 L 76.5 287 L 77.5 285 Z " /><path fill="rgb(221,221,223)" stroke="rgb(221,221,223)" stroke-width="1" opacity="0.9647058823529412" d="M 73.5 286 L 74.5 288 L 73.5 286 Z " /><path fill="rgb(221,221,223)" stroke="rgb(221,221,223)" stroke-width="1" opacity="0.9647058823529412" d="M 85.5 287 L 88 287.5 L 85.5 288 L 85.5 287 Z " /><path fill="rgb(221,221,223)" stroke="rgb(221,221,223)" stroke-width="1" opacity="0.9647058823529412" d="M 117.5 287 L 120 287.5 L 117.5 288 L 117.5 287 Z " /><path fill="rgb(221,221,223)" stroke="rgb(221,221,223)" stroke-width="1" opacity="0.9647058823529412" d="M 166.5 287 L 171 287.5 L 166.5 288 L 166.5 287 Z " /><path fill="rgb(221,221,223)" stroke="rgb(221,221,223)" stroke-width="1" opacity="0.9647058823529412" d="M 215.5 287 L 221 287.5 L 214.5 289 L 215.5 287 Z " /><path fill="rgb(221,221,223)" stroke="rgb(221,221,223)" stroke-width="1" opacity="0.9647058823529412" d="M 215.5 321 L 217.5 322 L 278.5 322 L 280 321.5 L 279.5 323 L 217.5 323 L 215.5 321 Z " /><path fill="rgb(221,221,223)" stroke="rgb(221,221,223)" stroke-width="1" opacity="0.9647058823529412" d="M 45.5 322 L 87 322.5 L 45.5 323 L 45.5 322 Z " /><path fill="rgb(126,132,208)" stroke="rgb(126,132,208)" stroke-width="1" opacity="0.9607843137254902" d="M 139 221 L 167 221 L 167 286.5 L 166 287.5 L 166 296.5 L 166 298.5 L 166.5 300 L 187 300 L 186 268.5 L 186 266.5 L 186 223.5 L 187.5 222 L 214 222 L 214 285.5 L 214 287.5 L 214 328 L 151 328 L 150.5 326 L 148.5 329 L 100.5 329 L 89 327 L 89 222.5 L 89.5 222 L 117 222 L 117 299.5 L 117.5 300 L 139 300 L 139 287.5 L 138 284.5 L 139 283.5 L 139 221 Z " /><path fill="rgb(233,233,234)" stroke="rgb(233,233,234)" stroke-width="1" opacity="0.6313725490196078" d="M 62.5 42 L 65 42.5 L 62.5 43 L 62.5 42 Z " /><path fill="rgb(233,233,234)" stroke="rgb(233,233,234)" stroke-width="1" opacity="0.6313725490196078" d="M 78.5 89 L 79 125.5 L 78 125.5 L 78.5 89 Z " /><path fill="rgb(233,233,234)" stroke="rgb(233,233,234)" stroke-width="1" opacity="0.6313725490196078" d="M 78.5 182 L 79 217.5 L 78 217.5 L 78.5 182 Z " /><path fill="rgb(233,233,234)" stroke="rgb(233,233,234)" stroke-width="1" opacity="0.6313725490196078" d="M 78.5 224 L 79 226.5 L 78 226.5 L 78.5 224 Z " /><path fill="rgb(233,233,234)" stroke="rgb(233,233,234)" stroke-width="1" opacity="0.6313725490196078" d="M 78.5 275 L 79 277.5 L 78 277.5 L 78.5 275 Z " /><path fill="rgb(233,233,234)" stroke="rgb(233,233,234)" stroke-width="1" opacity="0.6313725490196078" d="M 105.5 329 L 109 329.5 L 105.5 330 L 105.5 329 Z " /></svg>