<?xml version="1.0" standalone="no"?>
<!DOCTYPE svg PUBLIC "-//W3C//DTD SVG 20010904//EN"
 "http://www.w3.org/TR/2001/REC-SVG-20010904/DTD/svg10.dtd">
<svg version="1.0" xmlns="http://www.w3.org/2000/svg"
 viewBox="0 0 372.000000 108.000000"
 preserveAspectRatio="xMidYMid meet">

<g transform="translate(0.000000,108.000000) scale(0.100000,-0.100000)"
fill="#000000" stroke="none">
<path d="M2085 758 c-3 -8 -4 -135 -3 -283 l3 -270 180 1 c162 0 185 2 227 21
57 26 88 71 88 128 0 53 -18 85 -63 114 l-38 25 30 23 c59 46 63 140 8 193
-43 42 -70 47 -260 54 -132 5 -169 4 -172 -6z m323 -108 c28 -26 28 -71 1 -96
-17 -16 -37 -19 -113 -19 l-91 0 -3 54 c-5 81 -5 81 96 81 75 0 92 -3 110 -20z
m26 -231 c32 -25 35 -70 6 -99 -18 -18 -33 -20 -130 -20 l-110 0 0 63 c0 35 3
67 7 70 3 4 50 7 103 7 83 0 101 -3 124 -21z"/>
<path d="M368 505 c-2 -140 -1 -264 2 -277 l6 -23 199 0 200 0 3 47 3 47 -143
3 -143 3 -3 228 -2 227 -60 0 -59 0 -3 -255z"/>
<path d="M3219 718 c-1 -7 -1 -17 0 -22 1 -5 -1 -21 -4 -37 -5 -21 -13 -29
-33 -31 -24 -3 -27 -8 -30 -45 -3 -42 -2 -43 26 -43 l30 0 4 -117 c5 -128 15
-163 61 -197 39 -29 144 -35 173 -10 18 16 20 24 13 52 -9 31 -11 32 -50 26
-30 -5 -44 -3 -59 11 -18 16 -20 31 -20 126 l0 108 58 3 57 3 0 40 0 40 -57 3
-58 3 0 49 0 50 -55 0 c-37 0 -55 -4 -56 -12z"/>
<path d="M2852 558 l3 -123 25 0 25 0 3 123 3 122 -31 0 -31 0 3 -122z"/>
<path d="M955 633 c-51 -11 -105 -36 -105 -49 0 -8 7 -28 15 -43 14 -28 15
-29 52 -15 88 31 189 4 181 -50 -3 -19 -10 -21 -93 -24 -138 -5 -185 -38 -185
-131 0 -49 35 -95 86 -111 52 -17 134 -8 172 19 32 22 32 22 32 2 0 -19 6 -21
56 -21 l55 0 -3 153 c-4 187 -15 217 -92 253 -48 23 -115 29 -171 17z m145
-281 c0 -35 -25 -59 -68 -68 -45 -9 -81 3 -94 31 -9 21 -8 28 7 45 15 16 31
20 87 20 l68 0 0 -28z"/>
<path d="M1275 613 c4 -10 36 -101 72 -203 35 -101 69 -190 75 -198 7 -8 29
-12 62 -10 l51 3 38 105 c58 157 59 160 66 160 4 0 27 -56 51 -125 24 -69 49
-130 56 -136 7 -6 34 -9 60 -7 l49 3 77 205 c42 113 77 208 78 213 0 4 -24 7
-54 7 l-55 0 -19 -52 c-11 -29 -31 -90 -46 -135 -15 -46 -31 -85 -36 -88 -9
-5 -15 8 -67 160 l-38 110 -51 3 c-42 2 -53 0 -59 -15 -4 -10 -24 -67 -46
-126 -22 -60 -43 -116 -48 -125 -11 -20 -12 -20 -66 151 l-38 117 -60 0 c-52
0 -58 -2 -52 -17z"/>
<path d="M2748 610 c-92 -49 -134 -177 -89 -276 23 -49 88 -107 140 -122 56
-17 140 -14 186 7 50 22 109 86 125 136 19 56 7 139 -26 187 -35 50 -112 98
-125 77 -17 -26 -9 -67 19 -100 37 -44 39 -128 4 -176 -70 -98 -232 -43 -232
79 0 41 18 86 44 107 20 17 22 101 4 101 -7 -1 -30 -10 -50 -20z"/>
</g>
</svg>
